/* XPM */
static char *_638294639895[] = {
/* columns rows colors chars-per-pixel */
"392 44 2 1 ",
"  c #010100",
". c black",
/* pixels */
"...........  ..... ........... .....  .....  ..... ........... .....  .... ....... ........................  ..... ........... .....  .....  ..... ........... .....  .... ....... ........................  ..... ........... .....  .....  ..... ........... .....  .... ....... ........................  ..... ........... .....  .....  ..... ........... .....  .... ....... .....................",
"............... ..........  ...........  ...... ..........  ........... ....... ...........  ........ .. ...... ..........  ...........  ...... ..........  ........... ....... ...........  ........ .. ...... ..........  ...........  ...... ..........  ........... ....... ...........  ........ .. ...... ..........  ...........  ...... ..........  ........... ....... ...........  ........ ..",
".......... .... ... ... .......... .......... . ... ... .......... .......... . ... ... .......... .... .. .... ... ... .......... .......... . ... ... .......... .......... . ... ... .......... .... .. .... ... ... .......... .......... . ... ... .......... .......... . ... ... .......... .... .. .... ... ... .......... .......... . ... ... .......... .......... . ... ... .......... .... ",
"......... ......... ..... .. ........ ... ......... ..... .. ........ ... ......... .....  ... .......... ......... ..... .. ........ ... ......... ..... .. ........ ... ......... .....  ... .......... ......... ..... .. ........ ... ......... ..... .. ........ ... ......... .....  ... .......... ......... ..... .. ........ ... ......... ..... .. ........ ... ......... .....  ... .........",
"......... ... . ... . ....... .... ..... ....... .. ... ..... .... ..... .... .  .... ....... .. ....  .. ... . ... . ....... .... ..... ....... .. ... ..... .... ..... .... .  .... ....... .. ....  .. ... . ... . ....... .... ..... ....... .. ... ..... .... ..... .... .  .... ....... .. ....  .. ... . ... . ....... .... ..... ....... .. ... ..... .... ..... .... .  .... ....... .. ....  .",
"......... ..... ....... ....... .......... .. ... ............. ......... ..... . ..... .......... ...... ..... ....... ....... .......... .. ... ............. ......... ..... . ..... .......... ...... ..... ....... ....... .......... .. ... ............. ......... ..... . ..... .......... ...... ..... ....... ....... .......... .. ... ............. ......... ..... . ..... .......... .....",
"............ .......... ... ... ............. ............. ... ............ .......... ... .  ... . ....... .......... ... ... ............. ............. ... ............ .......... ... .  ... . ....... .......... ... ... ............. ............. ... ............ .......... ... .  ... . ....... .......... ... ... ............. ............. ... ............ .......... ... .  ... . ...",
"........ .. .... ....... ... ....... .. ..  ...... ..... ... ....... ..  .. ............ ............... .. .... ....... ... ....... .. ..  ...... ..... ... ....... ..  .. ............ ............... .. .... ....... ... ....... .. ..  ...... ..... ... ....... ..  .. ............ ............... .. .... ....... ... ....... .. ..  ...... ..... ... ....... ..  .. ............ ...............",
". ............................... ...... ........................ ...... ............ ..... ..... ............................... ...... ........................ ...... ............ ..... ..... ............................... ...... ........................ ...... ............ ..... ..... ............................... ...... ........................ ...... ............ ..... ..... ......",
"..... ....... ............ ............... .. ............ .......... .... .. ............... ....... ....... ............ ............... .. ............ .......... .... .. ............... ....... ....... ............ ............... .. ............ .......... .... .. ............... ....... ....... ............ ............... .. ............ .......... .... .. ............... ....... ..",
"....... .... ........ .. ....... ...... .... ........ .. .............. .... ........ ................. .... ........ .. ....... ...... .... ........ .. .............. .... ........ ................. .... ........ .. ....... ...... .... ........ .. .............. .... ........ ................. .... ........ .. ....... ...... .... ........ .. .............. .... ........ ................. ",
"....... ........ ........................ ...... ...................... . ...... .....  ............... ........ ........................ ...... ...................... . ...... .....  ............... ........ ........................ ...... ...................... . ...... .....  ............... ........ ........................ ...... ...................... . ...... .....  ............... ",
".... ......... .............. ... ............ .............. ...... ......... .............. ...... ......... .............. ... ............ .............. ...... ......... .............. ...... ......... .............. ... ............ .............. ...... ......... .............. ...... ......... .............. ... ............ .............. ...... ......... .............. ... ......",
". ..................  ... ....... .. ...............  ... ....... .................  ............ ..................  ... ....... .. ...............  ... ....... .................  ............ ..................  ... ....... .. ...............  ... ....... .................  ............ ..................  ... ....... .. ...............  ... ....... .................  ............ .. ...",
"..... ... ..... ......... . .. .......... ..... . ....... . .. ...... ... ..... ........... .. ...... ... ..... ......... . .. .......... ..... . ....... . .. ...... ... ..... ........... .. ...... ... ..... ......... . .. .......... ..... . ....... . .. ...... ... ..... ........... .. ...... ... ..... ......... . .. .......... ..... . ....... . .. ...... ... ..... ........... .. .........",
"... ....... ....... . ......... ... ....... ....... . ......... ........... ...... .. ......... ... ....... ....... . ......... ... ....... ....... . ......... ........... ...... .. ......... ... ....... ....... . ......... ... ....... ....... . ......... ........... ...... .. ......... ... ....... ....... . ......... ... ....... ....... . ......... ........... ...... .. ......... ... ....",
"........ ..... ............. ...... .... ..... .... ....... ..  ... .... ..... .... ....... ..  ........ ..... ............. ...... .... ..... .... ....... ..  ... .... ..... ............ .. ......... ..... ............. ...... .... ..... .... ....... ..  ... .... ..... .... ....... ..  ........ ..... ............. ...... .... ..... .... ....... ..  ... .... ..... ............ .. .........",
". ... ....... ........... .. .. ............. .... .......................... .... .............. ... ....... ........... .. .. ............. .... .......................... .............. .. . ... ....... ........... .. .. ............. .... .......................... .... .............. ... ....... ........... .. .. ............. .... .......................... .............. .. . ... ..",
".............. . ............ ....... ........ . ..... .. ... ....... ........ . ........ ... ................ . ............ ....... ........ . ..... .. ... ....... ........ . ........ ... ................ . ............ ....... ........ . ..... .. ... ....... ........ . ........ ... ................ . ............ ....... ........ . ..... .. ... ....... ........ . ........ ... ..........",
"...... .................. ................................. ... ........................... ... ...... .................. ................................. ... ...................................... .................. ................................. ... ........................... ... ...... .................. ................................. ... ...................................... .",
"............... ... ...... . .................. ............................... ............................... ... ...... . .................. ............................... ... ........ .................. ... ...... . .................. ............................... ............................... ... ...... . .................. ............................... ... ........ ...........",
"..... .... .......................... . .. .............. ........... . .. .............. ........... .... .......................... . .. .............. ........... . .. .............. ........... .... .......................... . .. .............. ........... . .. .............. ........... .... .......................... . .. .............. ........... . .. .............. ........... ..",
".. ............ .... . ...... ..... ...........    ........ ....... ...........    . ...... ...... ............ .... . ...... ..... ...........    ........ ....... ...........  ... . .... ...... ............ .... . ...... ..... ...........    ........ ....... ...........    . ...... ...... ............ .... . ...... ..... ...........    ........ ....... ...........  ... . .... ...... .....",
"... ..   ... .. .. .... . ........ .. .. ... .. ............... .. .. .. ... .. ............... ... ..   ... .. .. .... . ........ .. .. ... .. ............... .. .. .. ... .. .. .... ....... ... ..   ... .. .. .... . ........ .. .. ... .. ............... .. .. .. ... .. ............... ... ..   ... .. .. .... . ........ .. .. ... .. ............... .. .. .. ... .. .. .... ....... ... ..  ",
" .................. ............ ............................... ............................... .................. ............ ............................... .................. ............ .................. ............ ............................... ............................... .................. ............ ............................... .................. ............ .......",
".... .......... ...... ............. ...... ... ......... .......... ....... .. ......... .......... .......... ...... ............. ...... ... ......... .......... ....... .. ...... ............. .......... ...... ............. ...... ... ......... .......... ....... .. ......... .......... .......... ...... ............. ...... ... ......... .......... ....... .. ...... ............. ...",
".. ....... ...... . ........... .......... ..... ...... ...... ........... ..... ...... ...... ... ....... ...... . ........... .......... ..... ...... ...... ........... ..... ................. ....... ...... . ........... .......... ..... ...... ...... ........... ..... ...... ...... ... ....... ...... . ........... .......... ..... ...... ...... ........... ..... ................. .....",
"....... .... ....... ... ......... .... .... ........ ..... ... .. .... ...... ...... ..... ... ....... .... ....... ... ......... .... .... ........ ..... ... .. .... ...... ..... ... ...... ....... .... ....... ... ......... .... .... ........ ..... ... .. .... ...... ...... ..... ... ....... .... ....... ... ......... .... .... ........ ..... ... .. .... ...... ..... ... ...... ....... ",
"......... . .. .... ...... ... .................... ............................... .......... .......... . .. .... ...... ... .................... ............................... ...... ... .......... . .. .... ...... ... .................... ............................... .......... .......... . .. .... ...... ... .................... ............................... ...... ... ... .....",
".. . . .......... .... ........... . . ... .. ................ ... . . ... .. ... ................ . . .......... .... ........... . . ... .. ................ ... . . ... .. ... .... ........... . . .......... .... ........... . . ... .. ................ ... . . ... .. ... ................ . . .......... .... ........... . . ... .. ................ ... . . ... .. ... .... .................",
".......... ............ .......... ....  .................. ...... ..... .............. .................. ............ .......... ....  .................. ...... ..... .............. .................. ............ .......... ....  .................. ...... ..... .............. .................. ............ .......... ....  .................. ...... ..... .............. ............ ...",
" ......   .... .. ........... ..  ........ ..  .. ..... . ......  ..... .. ..  .. ....... ... .. ......   .... .. ........... ..  ........ ..  .. ..... . ......  ..... .. ..  .. ........... .. ......   .... .. ........... ..  ........ ..  .. ..... . ......  ..... .. ..  .. ....... ... .. ......   .... .. ........... ..  ........ ..  .. ..... . ......  ..... .. ..  .. ........... .. ...... ",
".... ..... ....... ... ...... ......  .... ....... ........... .....  .... ....... ................. ..... ....... ... ...... ......  .... ....... ........... ............  ..... ........... ..... ..... ....... ... ...... ......  .... ....... ........... .....  .... ....... ................. ..... ....... ... ...... ......  .... ....... ........... ............  ..... ........... ..... ...",
"..... ......... ............ .......... ....... ..........  ........... ....... ...........  ........ ......... ............ .......... ....... ..........  ......... . ....... ..........  ......... ......... ............ .......... ....... ..........  ........... ....... ...........  ........ ......... ............ .......... ....... ..........  ......... . ....... ..........  ......... ..",
".. .... . ... . ..... . .......... ...... ... . ... ... .......... ...... ... . ... ... .......... .... . ... . ..... . .......... ...... ... . ... ... .......... .... .. .... ... ... .......... .... . ... . ..... . .......... ...... ... . ... ... .......... ...... ... . ... ... .......... .... . ... . ..... . .......... ...... ... . ... ... .......... .... .. .... ... ... .......... .... ",
"..... ......  ...........  ... ...... ......  ..... ..... .. ........ ...... ...... .....  ... ...... ......  ...........  ... ...... ......  ..... ..... .. ............ .. ...... ..... .. ........ ......  ...........  ... ...... ......  ..... ..... .. ........ ...... ...... .....  ... ...... ......  ...........  ... ...... ......  ..... ..... .. ............ .. ...... ..... .. ........ ..",
".. ..... .......... . ...... ..... ..... ....... .. ... ..... .... ..... ......  .. ... ..... .... ..... .......... . ...... ..... ..... .......... . ....... .......  .. ......... . ....... .... ..... .......... . ...... ..... ..... ....... .. ... ..... .... ..... ......  .. ... ..... .... ..... .......... . ...... ..... ..... .......... . ....... .......  .. ......... . ....... .... .....",
".......... .. ......... . ................ .. ... ............. .......... .. ... ........................ .. ......... . ................ .. ......... ....... .. ....... .. . ....... ....... .......... .. ......... . ................ .. ... ............. .......... .. ... ........................ .. ......... . ................ .. ......... ....... .. ....... .. . ....... ....... ........",
"............. ......... .. ..  .............. ............. ... ............. ......... ... .  .............. ......... .. ..  .............. ......... ... ... .... ....... .......... ... ... ............. ......... .. ..  .............. ............. ... ............. ......... ... .  .............. ......... .. ..  .............. ......... ... ... .... ....... .......... ... ... ........",
".... .. ..  ...... ................. .. ..  ...... ..... ... ....... ..  .. ............ ........... .. ..  ...... ................. .. ..  .... ....... ... ........... .. .... ....... ... ....... .. ..  ...... ................. .. ..  ...... ..... ... ....... ..  .. ............ ........... .. ..  ...... ................. .. ..  .... ....... ... ........... .. .... ....... ... ....... .. ",
". ...... ........................ ...... ............ ........... ...... .................. ..... ...... ........................ ...... ........................ ............................... ...... ........................ ...... ............ ........... ...... .................. ..... ...... ........................ ...... ........................ ............................... ......",
"... ...... .. ............ .......... .... .. ............ .......... .... .................. ..... ...... .. ............ .......... .... .. ............ .......... .... .. ............ ........ ...... .. ............ .......... .... .. ............ .......... .... .................. ..... ...... .. ............ .......... .... .. ............ .......... .... .. ............ ........ ....",
"....... .... ........ .. ..... ........ .... ........ .. .............. .... ........ .. .............. .... ........ .. ..... ........ .... ........ .. .............. .... ........ .. .............. .... ........ .. ..... ........ .... ........ .. .............. .... ........ .. .............. .... ........ .. ..... ........ .... ........ .. .............. .... ........ .. .............. ",
"... ............ ..... ................ . ............................. . .....  .................. ............ ..... ................ . ...... ...................... . ...... .................. ............ ..... ................ . ............................. . .....  .................. ............ ..... ................ . ...... ...................... . ...... .................. ...."
};
