/* XPM */
static char *_638295649185[] = {
/* columns rows colors chars-per-pixel */
"32 32 57 1 ",
"  c black",
". c gray12",
"X c #250101",
"o c #3E0101",
"O c #420101",
"+ c #420202",
"@ c #4C0101",
"# c #540202",
"$ c #600202",
"% c #680202",
"& c #750000",
"* c #7B0303",
"= c #7D0303",
"- c #7E0303",
"; c #7F0303",
": c gray31",
"> c #800303",
", c #810303",
"< c #830202",
"1 c #820303",
"2 c #850303",
"3 c #860303",
"4 c #890303",
"5 c #A70404",
"6 c #AA0606",
"7 c #AE0505",
"8 c #BA0404",
"9 c #BB0505",
"0 c #BD0707",
"q c #C70000",
"w c #C20606",
"e c #C40606",
"r c #C50606",
"t c #C90707",
"y c #CC0404",
"u c #CE0707",
"i c #CB0808",
"p c #D10404",
"a c #D30404",
"s c #D30707",
"d c #D50505",
"f c #D40707",
"g c #D90404",
"h c #DA0505",
"j c #DE0707",
"k c #ED0404",
"l c #F20505",
"z c #FF0E05",
"x c #FD0B0B",
"c c #FF1405",
"v c #FF1D05",
"b c #FF2005",
"n c #FF2305",
"m c #FF2905",
"M c #FF2C05",
"N c #FF2F05",
"B c None",
/* pixels */
"BBBBBBBBBBBBBBBBBBBBBBBBBBBBBBBB",
"BBBBBBBBBBBBBBBBBBBBBBBBBBBBBBBB",
"BBBBBBBBBBBBBBBBBBBBBBBBBBBBBBBB",
"BBBBBBBBBBBBBBBBBBBB    BBBBBBBB",
"BBBBBBBBBBBBBBBBBB $yy- BBBBBBBB",
"BBBBBBBBBBBBBBBB  yyvy%BBBBBBBBB",
"BBBBBBBBBBBBBBB ,yvcc%BBBBBBBBBB",
"BBBBBBBB BBBBB ,llbbc BBBBBBBBBB",
"BBBBBBB qBBBB ,llbbbc BBBBBBBBBB",
"BBBBBB qq BBB;tlbbMbc BBBBBBBBBB",
"BBBBBB v,oBB;;vvvbbMb BBBBBBBBBB",
"BBBBB qvt*oB 2vvvMMMbl BBBBBBBBB",
"BBBBB qvvtto,vvvMMMMbl@ BBBBBBBB",
"BBBBB qvvvv8vvvMMMMbbllO  BBBBBB",
"BBBBB qvvvvvvvvMMMMMvvlvv5 BBBBB",
"BBBBB qvvvMvMMMMMMMMMbvvvv5 BBBB",
"BBBBB qvvcMbMMMMMMMMMbvvvvv$ BBB",
"BBBBB &vvbMMMMMMMMMMbbvvff55# BB",
"BBBBB &vvbvNMMMMMMMMbNbbj   5 BB",
"BBBBB &&vb .MMMMMMM .vbvve+B  BB",
"BBB  BX&vb  MMMMMMN  vg  w BBBBB",
"BBB 4  rMM:.MMMMMMM:.va B  BBBBB",
"BBB 3svgMMMMMMMMMMMMbvaXBB BBBBB",
"BBBB uvvMMMMMMMMMMMMbvaXBBBBBBBB",
"BBBB 08vvvvvMmMvbvMbxvk BBBBBBBB",
"BBBBB 6iizzzdddddddzzza BBBBBBBB",
"BBBBBB   z7         zza BBBBBBBB",
"BBBBBBBB    BBBBBBB    BBBBBBBBB",
"BBBBBBBBBBBBBBBBBBBBBBBBBBBBBBBB",
"BBBBBBBBBBBBBBBBBBBBBBBBBBBBBBBB",
"BBBBBBBBBBBBBBBBBBBBBBBBBBBBBBBB",
"BBBBBBBBBBBBBBBBBBBBBBBBBBBBBBBB"
};
