/* XPM */
static char *_638107060786[] = {
/* columns rows colors chars-per-pixel */
"32 32 13 1 ",
"  c #6A0000",
". c #5E2F1F",
"X c #7C371F",
"o c #860000",
"O c #AD0000",
"+ c #D60000",
"@ c red",
"# c #985E49",
"$ c #AD674D",
"% c #FC5556",
"& c #FC8A63",
"* c #FCBA7C",
"= c None",
/* pixels */
"================================",
"================================",
"================================",
"================================",
"================================",
"================================",
"================================",
"================================",
"===========X.===================",
"==========X$#.==================",
"========  .$.   ================",
"======= +%O#.ooo ===============",
"====== +%&+X.O@Oo ==X.==========",
"====== +&*%%@%++O =X$#.=========",
"===== +&**&%@++O   .$.   =======",
"===== +%&%%@@++O +%O#.ooo ======",
"===== O+@%@@++O +%&+X.O@Oo =====",
"====== O+@@++OO +&*%%@%++O =====",
"====== oO+++OOo +&**&%@++O =====",
"======= oOOOOo  +%&%%@@++O =====",
"========      = O+@%@@++Oo =====",
"================ O+@@++OO ======",
"================ oO+++OOo ======",
"================= oOOOOo =======",
"==================      ========",
"================================",
"================================",
"================================",
"================================",
"================================",
"================================",
"================================",
"================================"
};
