/* XPM */
static char *_638105678162[] = {
/* columns rows colors chars-per-pixel */
"32 32 5 1 ",
"  c black",
". c #474B6C",
"X c #6F757F",
"o c #A1AAB8",
"O c None",
/* pixels */
"OOOOOOOOOOOOOOOOOOOOOOOOOOOOOOOO",
"OOOOOOOOOOOOOOOOOOOOOOOOOOOOOOOO",
"OOOOOOOOOOOOOOOOOOOOOOOOOOOOOOOO",
"OOO                          OOO",
"OOO oooooooooooooooooooooooo OOO",
"OOO oXXXXXXXXXXXXXXXXXXXXXXX OOO",
"OOOO                        OOOO",
"OOOOO ...              ... OOOOO",
"OOOOO XX.              .XX OOOOO",
"OOOOO XX.              .XX OOOOO",
"OOOOO XX.              .XX OOOOO",
"OOOOO XX.              .XX OOOOO",
"OOOOO XX.              .XX OOOOO",
"OOOOO XX.              .XX OOOOO",
"OOOOO XX.              .XX OOOOO",
"OOOOO XX.              .XX OOOOO",
"OOOOO XX.              .XX OOOOO",
"OOOOO XX.              .XX OOOOO",
"OOOOO XX.              .XX OOOOO",
"OOOOO XX.              .XX OOOOO",
"OOOOO XX.              .XX OOOOO",
"OOOOO XX.              .XX OOOOO",
"OOOOO XX.              .XX OOOOO",
"OOOOO XX.              .XX OOOOO",
"OOOOO XX.              .XX OOOOO",
"OOOO  ....................  OOOO",
"OOO oooooooooooooooooooooooo OOO",
"OOO oXXXXXXXXXXXXXXXXXXXXXXX OOO",
"OOO                          OOO",
"OOOOOOOOOOOOOOOOOOOOOOOOOOOOOOOO",
"OOOOOOOOOOOOOOOOOOOOOOOOOOOOOOOO",
"OOOOOOOOOOOOOOOOOOOOOOOOOOOOOOOO"
};
