/* XPM */
static char *_638105672688[] = {
/* columns rows colors chars-per-pixel */
"32 32 6 1 ",
"  c black",
". c #474B6C",
"X c #6F757F",
"o c #A1AAB8",
"O c #D0D1D3",
"+ c None",
/* pixels */
"++++++++++++++++++++++++++++++++",
"++++++++++++++++++++++++++++++++",
"++++++++++++++++++++++++++++++++",
"++                          ++++",
"++ oooooooooooooooooooooooo ++++",
"++ oXXXXXXXXXXXXXXXXXXXXXXX ++++",
"+++                        +++++",
"++++ ...  .  .  .  .  ... ++++++",
"++++ XX.  .  .  .  .  .XX ++++++",
"++++ XX.  X  X  X  X  .XX ++++++",
"++++ XX.  X  X  X  X  .XX ++++++",
"++++ XX.  X  O  O  X  .XX ++++++",
"++++ XX.  O  O  O  X  .XX ++++++",
"++++ XX.  O  X  O  O  .XX ++++++",
"++++ XX.  O  O  O  O  .XX ++++++",
"++++ XX.  O  O  O  O  .XX ++++++",
"++++ XX.  O  O  X  X  .XX ++++++",
"++++ XX.  X  O  X  X  .XX ++++++",
"++++ XX.  X  X  O  X  .XX ++++++",
"++++ XX.  O  X  O  O  .XX ++++++",
"++++ XX.  O  O  O  O  .XX ++++++",
"++++ XX.  O  O  O  X  .XX ++++++",
"++++ XX.  X  O  X  X  .XX ++++++",
"++++ XX.  X  X  X  X  .XX ++++++",
"++++ XX.  X  X  X  X  .XX ++++++",
"+++  ....................  +++++",
"++ oooooooooooooooooooooooo ++++",
"++ oXXXXXXXXXXXXXXXXXXXXXXX ++++",
"++                          ++++",
"++++++++++++++++++++++++++++++++",
"++++++++++++++++++++++++++++++++",
"++++++++++++++++++++++++++++++++"
};
