/* XPM */
static char *_638105660889[] = {
/* columns rows colors chars-per-pixel */
"32 32 9 1 ",
"  c black",
". c #462F29",
"X c #764223",
"o c #94552E",
"O c #B16630",
"+ c #A1AAB8",
"@ c #D0D1D3",
"# c #FEFEFE",
"$ c None",
/* pixels */
"$$$$$$$$$$$$$$$$$$$$$$$$$$$$$$$$",
"$$$$$$$$$$$$$$$$$$$$$$$$$$$$$$$$",
"$$$                          $$$",
"$$ OOOOOOOooOOOOOoOOOOOOooOoo $$",
"$$ OOoooooooooooooooooooooooX $$",
"$$ Ooo....................ooX $$",
"$$ Oo.++++++++++++++++++++XoX $$",
"$$ Oo.+@@####@@#####@@@@@@XoX $$",
"$$ oo.+@@@####@@#####@@@@@XoX $$",
"$$ oo.+@@@@####@@#####@@@@XoX $$",
"$$ Oo.+@@@@@####@@#####@@@XoX $$",
"$$ Oo.+@@@@@@####@@#####@@XoX $$",
"$$ Oo.+@@@@@@@####@@#####@XoX $$",
"$$ Oo.+@@@@@@@@####@@#####XoX $$",
"$$ Oo.+@@@@@@@@@####@@####Xo. $$",
"$$ Oo.+@@@@@@@@@@####@@###XoX $$",
"$$ Oo.+@@@@@@@@@@@####@@##XoX $$",
"$$ Oo.+@@@@@@@@@@@@####@@#XoX $$",
"$$ Oo.+@@@@@@@@@@@@@####@@XoX $$",
"$$ Oo.+@@@@@@@@@@@@@@####@XoX $$",
"$$ Oo.+@@@@@@@@@@@@@@@####XoX $$",
"$$ Oo.+@@@@@@@@@@@@@@@@###Xo. $$",
"$$ Oo.+@@@@@@@@@@@@@@@@@##Xo. $$",
"$$ oo.+@@@@@@@@@@@@@@@@@@#Xo. $$",
"$$ oo.+@@@@@@@@@@@@@@@@@@@XoX $$",
"$$ Oo.+@@@@@@@@@@@@@@@@@@@XoX $$",
"$$ OooXXXXXXXXXXXXXXXXXXXXooX $$",
"$$ oooooooooooooooooooooooooX $$",
"$$ oXXXXXXXXXXXXXXXXX..XXXX.. $$",
"$$$                          $$$",
"$$$$$$$$$$$$$$$$$$$$$$$$$$$$$$$$",
"$$$$$$$$$$$$$$$$$$$$$$$$$$$$$$$$"
};
