/* XPM */
static char *_638101262062[] = {
/* columns rows colors chars-per-pixel */
"28 28 74 1 ",
"  c black",
". c #040504",
"X c #0A0B0A",
"o c #0C0D0C",
"O c #0C100C",
"+ c #0D110D",
"@ c #0E120E",
"# c #0E130E",
"$ c #0F140F",
"% c #111511",
"& c #121912",
"* c #141B14",
"= c #191F19",
"- c #1C251C",
"; c #202B21",
": c #222D22",
"> c #242F25",
", c #243025",
"< c #263026",
"1 c #273227",
"2 c #283128",
"3 c #283228",
"4 c #293329",
"5 c #283429",
"6 c #283629",
"7 c #2B352B",
"8 c #2C372D",
"9 c #2A382B",
"0 c #2E382E",
"q c #2E3A2F",
"w c #2F3A2F",
"e c #2E3C2F",
"r c #2F3C2F",
"t c #303A30",
"y c #323E32",
"u c #323E33",
"i c #354235",
"p c #334434",
"a c #374437",
"s c #3A433A",
"d c #3A463A",
"f c #3A473B",
"g c #374838",
"h c #39483A",
"j c #3D4B3E",
"k c #3B4C3C",
"l c #3D4C3E",
"z c #3F4C3F",
"x c #3D4F3E",
"c c #3F4D40",
"v c #3F4E40",
"b c #3F5040",
"n c #414F42",
"m c #415042",
"M c #435244",
"N c #445245",
"B c #455246",
"V c #455446",
"C c #465447",
"Z c #475348",
"A c #475548",
"S c #485148",
"D c #49554A",
"F c #4B564B",
"G c #4B574C",
"H c #4C594D",
"J c #4D584E",
"K c #505C51",
"L c #6D734A",
"P c #9A985C",
"I c #BEB671",
"U c #D0C470",
"Y c #CAC393",
"T c None",
/* pixels */
"TTTTTTTTTTTTTTTTTTTTTTTTTTTT",
"TTTTTTTTTTTTTTTTTTTTTTTTTTTT",
"OO%%OOOOOOOOOOOOOOOOOOOOO%o$",
"O>8>7210rree99y970eeeeuee9,$",
"O72sdFCCVxvbvkMvZvZMmMGZvde$",
"O72SFGv.okbZZMZGAZZGKGGv..0$",
"O7tFnBnoXMMvZZZKGKGMMGZg..7$",
"O2dvmmMxkGvAZGGFAGZZMZMcpp7*",
"O0yAmmCMMZBFZcBFGAZZvvkvgg7*",
"Or0MmmmCMZMBMcvvnMZvvZZxvp9%",
"O9pGmxmvvgvkvbggggdMxggvhi8&",
"O70Gxg$OOoOOoO$$$$#oo#$O$OO&",
"O20GxipOYYU*g#PYUOp$YY**LUY ",
"o2iABgxOPU*vg*<YO$pOPU*p$UI*",
"&5gGnjkj#POxcd*U#pg$*U*d,O**",
"%7gGnxnck#gvGk*=ggdpO#*pg*p-",
"%tyGjnnMvvvgGdgpdvxp$ppkhx0&",
"&eiABncxvnZnnckkgvvdppdxvg0=",
"%0mmBBnBMZvGZGncgcckgvkccp0*",
"Or0vBnnmvZZZnvkZncvgdnncvgt*",
"$0yCSBjnMvMmnknncdxdgvnnxde*",
"$9,0xjp89990rr0999997pgvg;9$",
"O$O->s7O************o$tu:OO$",
"TT$9ehp$TTTTTTTTTTTTO,tp9OTT",
"TTO1:<1$TTTTTTTTTTTT$9et1OTT",
"TTOOOO$OTTTTTTTTTTTTOO$OOOTT",
"TTTTTTTTTTTTTTTTTTTTTTTTTTTT",
"TTTTTTTTTTTTTTTTTTTTTTTTTTTT"
};
