/* XPM */
static char *_638101251454[] = {
/* columns rows colors chars-per-pixel */
"28 28 76 1 ",
"  c black",
". c #040504",
"X c #0A0B0A",
"o c #0C0D0C",
"O c #0C100C",
"+ c #0E130E",
"@ c #0F120F",
"# c #0F140F",
"$ c #111611",
"% c #121912",
"& c #141B14",
"* c #151A15",
"= c #161D16",
"- c #171E17",
"; c #1C251C",
": c #2D2F1E",
"> c #202B21",
", c #242D25",
"< c #242F25",
"1 c #243025",
"2 c #273227",
"3 c #293329",
"4 c #283429",
"5 c #2A352A",
"6 c #2C372D",
"7 c #2A382B",
"8 c #2E382E",
"9 c #2E3A2E",
"0 c #2E3B2F",
"q c #2E3C2F",
"w c #2F3C2F",
"e c #303A30",
"r c #303D31",
"t c #323E33",
"y c #323F33",
"u c #354235",
"i c #334434",
"p c #374437",
"a c #3A433A",
"s c #384539",
"d c #384639",
"f c #3A473B",
"g c #374838",
"h c #39483A",
"j c #3B483B",
"k c #3D4B3E",
"l c #3B4C3C",
"z c #3F4C3F",
"x c #3D4F3E",
"c c #3E4E3F",
"v c #3F4D40",
"b c #3F4E40",
"n c #3F5040",
"m c #414E42",
"M c #414F42",
"N c #415042",
"B c #435244",
"V c #445245",
"C c #455146",
"Z c #455446",
"A c #465447",
"S c #475348",
"D c #475448",
"F c #475548",
"G c #485449",
"H c #49554A",
"J c #49564A",
"K c #4B574C",
"L c #4D584E",
"P c #505C51",
"I c #6D734A",
"U c #9A985C",
"Y c #BEB671",
"T c #D0C470",
"R c #CAC393",
"E c None",
/* pixels */
"EEEEEEEEEEEEEEEEEEEEEEEEEEEE",
"EEEEEEEEEEEEEEEEEEEEEEEEEEEE",
"+++++oO+oOOOO+oO+oOOOOOO$$o+",
"+<59ryr9qr0779779rrw9145,71o",
"+wjbSHBMnBBBbBlNMNbBVBHff,5O",
"$7..bKLLLDDHHHCBBBfo.nLDS57O",
"o7..dDKBBLLLPDDCbNBX+NCbL65o",
"*7iikBSBSBHHHLLDDNKvbBNBvj3o",
"%7jjNlnMBCKKHBMCKBDBBBBnGy6+",
"%7ukkVDbNHBMMbbBBBDBSBnBC7eo",
"%7idvgglMfdpggnbkkgkknxnLe7o",
"%+++OO+++#+++++O+++O++gjK96+",
" RTI&&RR+i+TRU+d%TRR+ignK93o",
"$YT#i&TU+u++R:%gn%TU+jgVBf<+",
"**+,j&T&#gi+T%jkx+U+llbMLf1%",
"-i%ji&O+ijgg;$kFNp+gkNkMLp5+",
"&rdbvii#ibbjigjFjkNMVNMkLrr%",
"=rffbgiigbffnlnVNVMkbnNBHu9$",
"=rifnbbfgVjfMxLHHxCVCMCCMMe$",
"*7fbnNNpffVxNMxNDHCVxMMCM99+",
"&rgfMBbdgbgkNNkkMMbkkMCHC06+",
"+7>gffi777775r9977775ikn717+",
"#OO>y9++&&&&&&&&=&&*+4f1;+++",
"EE+7p01+EEEEEEEEEEEE+pf97+EE",
"EE+1907+EEEEEEEEEEEE+11,,+EE",
"EEO+++++EEEEEEEEEEEE+++++oEE",
"EEEEEEEEEEEEEEEEEEEEEEEEEEEE",
"EEEEEEEEEEEEEEEEEEEEEEEEEEEE"
};
