/* XPM */
static char *_638105666695[] = {
/* columns rows colors chars-per-pixel */
"32 32 6 1 ",
"  c black",
". c #462F29",
"X c #764223",
"o c #94552E",
"O c #B16630",
"+ c None",
/* pixels */
"++++++++++++++++++++++++++++++++",
"++++++++++++++++++++++++++++++++",
"++++++++++++++++++++++++++++++++",
"++++++++++++++++++++++++++++++++",
"++++++++++++++++++++++++++++++++",
"                                ",
" .OOOOOOOOOOOOOOOOOOO.  oooooo  ",
" O.OOooooooXXooooooO.O  ..X.XX  ",
" O.OOoooOooooOOoooOO.O o XXXX . ",
" Oo.OOXXXooooXXXXOO.Oo o X..X X ",
" OXo               Ooo o.     X ",
" Ooo XXXXXXXXXX..X.OoX X. .XX X ",
" OoO XooooOOoooXXX.OoX XX XX. X ",
" OOX XoooooooXXXoo.Ooo XX X.X . ",
" OoX XooXXoooooOOo.OXo XX XXX . ",
" Ooo ..............OXo XX ... X ",
" Ooo XoOOOOOoOOOoo.OoO .X XXX X ",
" OoO XoXXoooooXXXo.Ooo .X XX. X ",
" OoX XooOoooXXX.XX.Ooo XX XXX X ",
" OoX XoooooooooXXo.OXo X. ..X X ",
" Ooo XXXoooXXXoooX.OXo XX XXX X ",
" Ooo ..............Ooo XX ... . ",
" Ooo XOOooOOOoOOXX.OoX XX X.X . ",
" Ooo XoXXooooooooo.OoX .X XXX . ",
" OXo XooOOoXXooooO.OoX .X XX. X ",
" OoO XooooXX.XOooo.Ooo XX .XX X ",
" OOO ..............OOo oX     X ",
" OO.OOOOOOOOOOOOOOO.OO o XX.X X ",
" O.OoooXXooooooXXooO.O o .XXX X ",
" O.OooOOooXXoXX.XXXO.O  XXXXX.  ",
" .OooXXXXoooooXXXoooO.  XX..XX  ",
"  ...................  ...  ... "
};
